# xmcd
#
# Track frame offsets:
#	150
#	13609
#	31056
#	43653
#	59282
#	74797
#	86579
#	102906
#	115025
#	125867
#	141939
#	157026
#
# Disc length: 2354 seconds
#
# Revision: 1
# Processed by: cddbd v1.5.1PL0 Copyright (c) Steve Scherf et al.
# Submitted via: audiograbber 1.83.01
#
DISCID=a909300c
DTITLE=Kenny Rogers - Songs You Know by Heart
DYEAR=1994
DGENRE=Country
TTITLE0=Ruby Don't Take Your Love To Town
TTITLE1=Something's Burning
TTITLE2=Reuben James
TTITLE3=For The Good times
TTITLE4=Tell it all brother
TTITLE5=Me and Bobby McGee
TTITLE6=Tulsa Turnaround
TTITLE7=Elvira
TTITLE8=Ticket to nowhere
TTITLE9=My Washington women
TTITLE10=Heed the call
TTITLE11=Lay it down
EXTD=
EXTT0=
EXTT1=
EXTT2=
EXTT3=
EXTT4=
EXTT5=
EXTT6=
EXTT7=
EXTT8=
EXTT9=
EXTT10=
EXTT11=
PLAYORDER=
